solid OpenSCAD_Model
  facet normal 1 -0 0
    outer loop
      vertex 66.6 0 3
      vertex 66.6 17 0
      vertex 66.6 17 3
    endloop
  endfacet
  facet normal 1 0 0
    outer loop
      vertex 66.6 17 0
      vertex 66.6 0 3
      vertex 66.6 0 0
    endloop
  endfacet
  facet normal -0 0 1
    outer loop
      vertex 10 17 43.6
      vertex 56.61 0 43.6
      vertex 56.61 17 43.6
    endloop
  endfacet
  facet normal 0 0 1
    outer loop
      vertex 56.61 0 43.6
      vertex 10 17 43.6
      vertex 10 0 43.6
    endloop
  endfacet
  facet normal 0 0 -1
    outer loop
      vertex 66.6 0 0
      vertex 59.7607 3.3758 0
      vertex 66.6 17 0
    endloop
  endfacet
  facet normal 0 0 -1
    outer loop
      vertex 66.6 17 0
      vertex 60.0122 14.0304 0
      vertex 60.1 14.5 0
    endloop
  endfacet
  facet normal 0 0 -1
    outer loop
      vertex 59.7607 13.6242 0
      vertex 66.6 17 0
      vertex 59.7607 3.3758 0
    endloop
  endfacet
  facet normal 0 0 -1
    outer loop
      vertex 66.6 17 0
      vertex 59.7607 13.6242 0
      vertex 60.0122 14.0304 0
    endloop
  endfacet
  facet normal 0 0 -1
    outer loop
      vertex 59.3795 3.66371 0
      vertex 59.7607 13.6242 0
      vertex 59.7607 3.3758 0
    endloop
  endfacet
  facet normal 0 0 -1
    outer loop
      vertex 59.3795 3.66371 0
      vertex 59.3795 13.3363 0
      vertex 59.7607 13.6242 0
    endloop
  endfacet
  facet normal 0 0 -1
    outer loop
      vertex 58.9199 3.79445 0
      vertex 59.3795 13.3363 0
      vertex 59.3795 3.66371 0
    endloop
  endfacet
  facet normal 0 0 -1
    outer loop
      vertex 58.9199 3.79445 0
      vertex 58.9199 13.2055 0
      vertex 59.3795 13.3363 0
    endloop
  endfacet
  facet normal 0 0 -1
    outer loop
      vertex 58.4442 3.75037 0
      vertex 58.9199 13.2055 0
      vertex 58.9199 3.79445 0
    endloop
  endfacet
  facet normal 0 0 -1
    outer loop
      vertex 58.4442 3.75037 0
      vertex 58.4442 13.2496 0
      vertex 58.9199 13.2055 0
    endloop
  endfacet
  facet normal 0 0 -1
    outer loop
      vertex 58.0166 3.53742 0
      vertex 58.4442 13.2496 0
      vertex 58.4442 3.75037 0
    endloop
  endfacet
  facet normal 0 0 -1
    outer loop
      vertex 58.0166 3.53742 0
      vertex 58.0166 13.4626 0
      vertex 58.4442 13.2496 0
    endloop
  endfacet
  facet normal 0 0 -1
    outer loop
      vertex 57.6947 3.18436 0
      vertex 58.0166 13.4626 0
      vertex 58.0166 3.53742 0
    endloop
  endfacet
  facet normal 0 0 -1
    outer loop
      vertex 57.6947 3.18436 0
      vertex 57.6947 13.8156 0
      vertex 58.0166 13.4626 0
    endloop
  endfacet
  facet normal 0 0 -1
    outer loop
      vertex 53.6 0 0
      vertex 57.6947 3.18436 0
      vertex 57.5221 2.73887 0
    endloop
  endfacet
  facet normal -0 0 -1
    outer loop
      vertex 57.6947 3.18436 0
      vertex 53.6 0 0
      vertex 57.6947 13.8156 0
    endloop
  endfacet
  facet normal 0 0 -1
    outer loop
      vertex 60.0122 2.96961 0
      vertex 66.6 0 0
      vertex 60.1 2.5 0
    endloop
  endfacet
  facet normal 0 0 -1
    outer loop
      vertex 66.6 0 0
      vertex 60.0122 2.03039 0
      vertex 60.1 2.5 0
    endloop
  endfacet
  facet normal 0 0 -1
    outer loop
      vertex 66.6 0 0
      vertex 59.7607 1.6242 0
      vertex 60.0122 2.03039 0
    endloop
  endfacet
  facet normal 0 0 -1
    outer loop
      vertex 66.6 0 0
      vertex 59.3795 1.33629 0
      vertex 59.7607 1.6242 0
    endloop
  endfacet
  facet normal 0 0 -1
    outer loop
      vertex 66.6 0 0
      vertex 58.9199 1.20555 0
      vertex 59.3795 1.33629 0
    endloop
  endfacet
  facet normal 0 0 -1
    outer loop
      vertex 53.6 0 0
      vertex 58.9199 1.20555 0
      vertex 66.6 0 0
    endloop
  endfacet
  facet normal 0 0 -1
    outer loop
      vertex 53.6 0 0
      vertex 57.5221 2.73887 0
      vertex 57.5221 2.26113 0
    endloop
  endfacet
  facet normal 0 0 -1
    outer loop
      vertex 53.6 17 0
      vertex 57.6947 13.8156 0
      vertex 53.6 0 0
    endloop
  endfacet
  facet normal 0 0 -1
    outer loop
      vertex 57.6947 13.8156 0
      vertex 53.6 17 0
      vertex 57.5221 14.2611 0
    endloop
  endfacet
  facet normal -0 0 -1
    outer loop
      vertex 57.6947 1.81564 0
      vertex 53.6 0 0
      vertex 57.5221 2.26113 0
    endloop
  endfacet
  facet normal -0 0 -1
    outer loop
      vertex 58.0166 1.46258 0
      vertex 53.6 0 0
      vertex 57.6947 1.81564 0
    endloop
  endfacet
  facet normal -0 0 -1
    outer loop
      vertex 58.4442 1.24963 0
      vertex 53.6 0 0
      vertex 58.0166 1.46258 0
    endloop
  endfacet
  facet normal -0 0 -1
    outer loop
      vertex 58.9199 1.20555 0
      vertex 53.6 0 0
      vertex 58.4442 1.24963 0
    endloop
  endfacet
  facet normal 0 0 -1
    outer loop
      vertex 59.7607 3.3758 0
      vertex 66.6 0 0
      vertex 60.0122 2.96961 0
    endloop
  endfacet
  facet normal 0 0 -1
    outer loop
      vertex 60.0122 14.9696 0
      vertex 66.6 17 0
      vertex 60.1 14.5 0
    endloop
  endfacet
  facet normal 0 0 -1
    outer loop
      vertex 59.7607 15.3758 0
      vertex 66.6 17 0
      vertex 60.0122 14.9696 0
    endloop
  endfacet
  facet normal 0 0 -1
    outer loop
      vertex 59.3795 15.6637 0
      vertex 66.6 17 0
      vertex 59.7607 15.3758 0
    endloop
  endfacet
  facet normal 0 0 -1
    outer loop
      vertex 58.9199 15.7945 0
      vertex 66.6 17 0
      vertex 59.3795 15.6637 0
    endloop
  endfacet
  facet normal 0 0 -1
    outer loop
      vertex 53.6 17 0
      vertex 58.9199 15.7945 0
      vertex 58.4442 15.7504 0
    endloop
  endfacet
  facet normal 0 0 -1
    outer loop
      vertex 58.9199 15.7945 0
      vertex 53.6 17 0
      vertex 66.6 17 0
    endloop
  endfacet
  facet normal 0 0 -1
    outer loop
      vertex 58.0166 15.5374 0
      vertex 53.6 17 0
      vertex 58.4442 15.7504 0
    endloop
  endfacet
  facet normal 0 0 -1
    outer loop
      vertex 57.6947 15.1844 0
      vertex 53.6 17 0
      vertex 58.0166 15.5374 0
    endloop
  endfacet
  facet normal 0 0 -1
    outer loop
      vertex 57.5221 14.7389 0
      vertex 53.6 17 0
      vertex 57.6947 15.1844 0
    endloop
  endfacet
  facet normal 0 0 -1
    outer loop
      vertex 57.5221 14.2611 0
      vertex 53.6 17 0
      vertex 57.5221 14.7389 0
    endloop
  endfacet
  facet normal 0 0 -1
    outer loop
      vertex 13 0 0
      vertex 8.76071 3.3758 0
      vertex 13 17 0
    endloop
  endfacet
  facet normal 0 0 -1
    outer loop
      vertex 13 17 0
      vertex 9.01221 14.0304 0
      vertex 9.1 14.5 0
    endloop
  endfacet
  facet normal 0 0 -1
    outer loop
      vertex 8.76071 13.6242 0
      vertex 13 17 0
      vertex 8.76071 3.3758 0
    endloop
  endfacet
  facet normal 0 0 -1
    outer loop
      vertex 13 17 0
      vertex 8.76071 13.6242 0
      vertex 9.01221 14.0304 0
    endloop
  endfacet
  facet normal 0 0 -1
    outer loop
      vertex 8.37946 3.66371 0
      vertex 8.76071 13.6242 0
      vertex 8.76071 3.3758 0
    endloop
  endfacet
  facet normal 0 0 -1
    outer loop
      vertex 8.37946 3.66371 0
      vertex 8.37946 13.3363 0
      vertex 8.76071 13.6242 0
    endloop
  endfacet
  facet normal 0 0 -1
    outer loop
      vertex 7.91995 3.79445 0
      vertex 8.37946 13.3363 0
      vertex 8.37946 3.66371 0
    endloop
  endfacet
  facet normal 0 0 -1
    outer loop
      vertex 7.91995 3.79445 0
      vertex 7.91995 13.2055 0
      vertex 8.37946 13.3363 0
    endloop
  endfacet
  facet normal 0 0 -1
    outer loop
      vertex 7.44424 3.75037 0
      vertex 7.91995 13.2055 0
      vertex 7.91995 3.79445 0
    endloop
  endfacet
  facet normal 0 0 -1
    outer loop
      vertex 7.44424 3.75037 0
      vertex 7.44424 13.2496 0
      vertex 7.91995 13.2055 0
    endloop
  endfacet
  facet normal 0 0 -1
    outer loop
      vertex 7.01657 3.53742 0
      vertex 7.44424 13.2496 0
      vertex 7.44424 3.75037 0
    endloop
  endfacet
  facet normal 0 0 -1
    outer loop
      vertex 7.01657 3.53742 0
      vertex 7.01657 13.4626 0
      vertex 7.44424 13.2496 0
    endloop
  endfacet
  facet normal 0 0 -1
    outer loop
      vertex 6.69472 3.18436 0
      vertex 7.01657 13.4626 0
      vertex 7.01657 3.53742 0
    endloop
  endfacet
  facet normal 0 0 -1
    outer loop
      vertex 6.69472 3.18436 0
      vertex 6.69472 13.8156 0
      vertex 7.01657 13.4626 0
    endloop
  endfacet
  facet normal 0 0 -1
    outer loop
      vertex 0 0 0
      vertex 6.69472 3.18436 0
      vertex 6.52213 2.73887 0
    endloop
  endfacet
  facet normal -0 0 -1
    outer loop
      vertex 6.69472 3.18436 0
      vertex 0 0 0
      vertex 6.69472 13.8156 0
    endloop
  endfacet
  facet normal 0 0 -1
    outer loop
      vertex 9.01221 2.96961 0
      vertex 13 0 0
      vertex 9.1 2.5 0
    endloop
  endfacet
  facet normal 0 0 -1
    outer loop
      vertex 13 0 0
      vertex 9.01221 2.03039 0
      vertex 9.1 2.5 0
    endloop
  endfacet
  facet normal 0 0 -1
    outer loop
      vertex 13 0 0
      vertex 8.76071 1.6242 0
      vertex 9.01221 2.03039 0
    endloop
  endfacet
  facet normal 0 0 -1
    outer loop
      vertex 13 0 0
      vertex 8.37946 1.33629 0
      vertex 8.76071 1.6242 0
    endloop
  endfacet
  facet normal 0 0 -1
    outer loop
      vertex 13 0 0
      vertex 7.91995 1.20555 0
      vertex 8.37946 1.33629 0
    endloop
  endfacet
  facet normal 0 0 -1
    outer loop
      vertex 0 0 0
      vertex 7.91995 1.20555 0
      vertex 13 0 0
    endloop
  endfacet
  facet normal 0 0 -1
    outer loop
      vertex 0 0 0
      vertex 6.52213 2.73887 0
      vertex 6.52213 2.26113 0
    endloop
  endfacet
  facet normal 0 0 -1
    outer loop
      vertex 0 17 0
      vertex 6.69472 13.8156 0
      vertex 0 0 0
    endloop
  endfacet
  facet normal 0 0 -1
    outer loop
      vertex 6.69472 13.8156 0
      vertex 0 17 0
      vertex 6.52213 14.2611 0
    endloop
  endfacet
  facet normal -0 0 -1
    outer loop
      vertex 6.69472 1.81564 0
      vertex 0 0 0
      vertex 6.52213 2.26113 0
    endloop
  endfacet
  facet normal -0 0 -1
    outer loop
      vertex 7.01657 1.46258 0
      vertex 0 0 0
      vertex 6.69472 1.81564 0
    endloop
  endfacet
  facet normal -0 0 -1
    outer loop
      vertex 7.44424 1.24963 0
      vertex 0 0 0
      vertex 7.01657 1.46258 0
    endloop
  endfacet
  facet normal -0 0 -1
    outer loop
      vertex 7.91995 1.20555 0
      vertex 0 0 0
      vertex 7.44424 1.24963 0
    endloop
  endfacet
  facet normal 0 0 -1
    outer loop
      vertex 8.76071 3.3758 0
      vertex 13 0 0
      vertex 9.01221 2.96961 0
    endloop
  endfacet
  facet normal 0 0 -1
    outer loop
      vertex 9.01221 14.9696 0
      vertex 13 17 0
      vertex 9.1 14.5 0
    endloop
  endfacet
  facet normal 0 0 -1
    outer loop
      vertex 8.76071 15.3758 0
      vertex 13 17 0
      vertex 9.01221 14.9696 0
    endloop
  endfacet
  facet normal 0 0 -1
    outer loop
      vertex 8.37946 15.6637 0
      vertex 13 17 0
      vertex 8.76071 15.3758 0
    endloop
  endfacet
  facet normal 0 0 -1
    outer loop
      vertex 7.91995 15.7945 0
      vertex 13 17 0
      vertex 8.37946 15.6637 0
    endloop
  endfacet
  facet normal 0 0 -1
    outer loop
      vertex 0 17 0
      vertex 7.91995 15.7945 0
      vertex 7.44424 15.7504 0
    endloop
  endfacet
  facet normal 0 0 -1
    outer loop
      vertex 6.52213 14.2611 0
      vertex 0 17 0
      vertex 6.52213 14.7389 0
    endloop
  endfacet
  facet normal 0 0 -1
    outer loop
      vertex 7.91995 15.7945 0
      vertex 0 17 0
      vertex 13 17 0
    endloop
  endfacet
  facet normal 0 0 -1
    outer loop
      vertex 7.01657 15.5374 0
      vertex 0 17 0
      vertex 7.44424 15.7504 0
    endloop
  endfacet
  facet normal 0 0 -1
    outer loop
      vertex 6.69472 15.1844 0
      vertex 0 17 0
      vertex 7.01657 15.5374 0
    endloop
  endfacet
  facet normal 0 0 -1
    outer loop
      vertex 6.52213 14.7389 0
      vertex 0 17 0
      vertex 6.69472 15.1844 0
    endloop
  endfacet
  facet normal -1 0 0
    outer loop
      vertex 0 0 0
      vertex 0 17 3
      vertex 0 17 0
    endloop
  endfacet
  facet normal -1 -0 0
    outer loop
      vertex 0 17 3
      vertex 0 0 0
      vertex 0 0 3
    endloop
  endfacet
  facet normal 0 1 0
    outer loop
      vertex 66.6 17 3
      vertex 66.6 17 0
      vertex 56.61 17 3
    endloop
  endfacet
  facet normal 0 1 0
    outer loop
      vertex 56.61 17 43.6
      vertex 53.6 17 36.6
      vertex 10 17 43.6
    endloop
  endfacet
  facet normal 0 1 -0
    outer loop
      vertex 56.61 17 3
      vertex 53.6 17 36.6
      vertex 56.61 17 43.6
    endloop
  endfacet
  facet normal 0 1 0
    outer loop
      vertex 56.61 17 3
      vertex 53.6 17 0
      vertex 53.6 17 36.6
    endloop
  endfacet
  facet normal 0 1 0
    outer loop
      vertex 53.6 17 0
      vertex 56.61 17 3
      vertex 66.6 17 0
    endloop
  endfacet
  facet normal 0 1 -0
    outer loop
      vertex 13 17 36.6
      vertex 10 17 43.6
      vertex 53.6 17 36.6
    endloop
  endfacet
  facet normal 0 1 0
    outer loop
      vertex 13 17 36.6
      vertex 10 17 3
      vertex 10 17 43.6
    endloop
  endfacet
  facet normal 0 1 -0
    outer loop
      vertex 13 17 0
      vertex 10 17 3
      vertex 13 17 36.6
    endloop
  endfacet
  facet normal 0 1 0
    outer loop
      vertex 0 17 0
      vertex 10 17 3
      vertex 13 17 0
    endloop
  endfacet
  facet normal 0 1 0
    outer loop
      vertex 10 17 3
      vertex 0 17 0
      vertex 0 17 3
    endloop
  endfacet
  facet normal 0 -1 0
    outer loop
      vertex 0 0 3
      vertex 0 0 0
      vertex 10 0 3
    endloop
  endfacet
  facet normal 0 -1 0
    outer loop
      vertex 10 0 43.6
      vertex 13 0 36.6
      vertex 56.61 0 43.6
    endloop
  endfacet
  facet normal 0 -1 0
    outer loop
      vertex 10 0 3
      vertex 13 0 36.6
      vertex 10 0 43.6
    endloop
  endfacet
  facet normal 0 -1 0
    outer loop
      vertex 10 0 3
      vertex 13 0 0
      vertex 13 0 36.6
    endloop
  endfacet
  facet normal 0 -1 0
    outer loop
      vertex 13 0 0
      vertex 10 0 3
      vertex 0 0 0
    endloop
  endfacet
  facet normal 0 -1 0
    outer loop
      vertex 53.6 0 36.6
      vertex 56.61 0 43.6
      vertex 13 0 36.6
    endloop
  endfacet
  facet normal 0 -1 0
    outer loop
      vertex 53.6 0 36.6
      vertex 56.61 0 3
      vertex 56.61 0 43.6
    endloop
  endfacet
  facet normal 0 -1 0
    outer loop
      vertex 53.6 0 0
      vertex 56.61 0 3
      vertex 53.6 0 36.6
    endloop
  endfacet
  facet normal 0 -1 0
    outer loop
      vertex 66.6 0 0
      vertex 56.61 0 3
      vertex 53.6 0 0
    endloop
  endfacet
  facet normal 0 -1 0
    outer loop
      vertex 56.61 0 3
      vertex 66.6 0 0
      vertex 66.6 0 3
    endloop
  endfacet
  facet normal -1 0 0
    outer loop
      vertex 10 0 3
      vertex 10 17 43.6
      vertex 10 17 3
    endloop
  endfacet
  facet normal -1 -0 0
    outer loop
      vertex 10 17 43.6
      vertex 10 0 3
      vertex 10 0 43.6
    endloop
  endfacet
  facet normal -0 0 1
    outer loop
      vertex 9.01221 2.96961 3
      vertex 10 0 3
      vertex 9.01221 14.0304 3
    endloop
  endfacet
  facet normal 0 0 1
    outer loop
      vertex 10 0 3
      vertex 9.01221 2.96961 3
      vertex 9.1 2.5 3
    endloop
  endfacet
  facet normal -0 0 1
    outer loop
      vertex 8.76071 13.6242 3
      vertex 9.01221 2.96961 3
      vertex 9.01221 14.0304 3
    endloop
  endfacet
  facet normal 0 0 1
    outer loop
      vertex 8.76071 13.6242 3
      vertex 8.76071 3.3758 3
      vertex 9.01221 2.96961 3
    endloop
  endfacet
  facet normal -0 0 1
    outer loop
      vertex 8.37946 13.3363 3
      vertex 8.76071 3.3758 3
      vertex 8.76071 13.6242 3
    endloop
  endfacet
  facet normal 0 0 1
    outer loop
      vertex 8.37946 13.3363 3
      vertex 8.37946 3.66371 3
      vertex 8.76071 3.3758 3
    endloop
  endfacet
  facet normal -0 0 1
    outer loop
      vertex 7.91995 13.2055 3
      vertex 8.37946 3.66371 3
      vertex 8.37946 13.3363 3
    endloop
  endfacet
  facet normal 0 0 1
    outer loop
      vertex 7.91995 13.2055 3
      vertex 7.91995 3.79445 3
      vertex 8.37946 3.66371 3
    endloop
  endfacet
  facet normal 0 0 1
    outer loop
      vertex 7.44424 13.2496 3
      vertex 7.91995 3.79445 3
      vertex 7.91995 13.2055 3
    endloop
  endfacet
  facet normal 0 0 1
    outer loop
      vertex 7.44424 13.2496 3
      vertex 7.44424 3.75037 3
      vertex 7.91995 3.79445 3
    endloop
  endfacet
  facet normal 0 0 1
    outer loop
      vertex 7.01657 13.4626 3
      vertex 7.44424 3.75037 3
      vertex 7.44424 13.2496 3
    endloop
  endfacet
  facet normal 0 0 1
    outer loop
      vertex 7.01657 13.4626 3
      vertex 7.01657 3.53742 3
      vertex 7.44424 3.75037 3
    endloop
  endfacet
  facet normal 0 0 1
    outer loop
      vertex 6.69472 13.8156 3
      vertex 7.01657 3.53742 3
      vertex 7.01657 13.4626 3
    endloop
  endfacet
  facet normal 0 0 1
    outer loop
      vertex 6.69472 13.8156 3
      vertex 6.69472 3.18436 3
      vertex 7.01657 3.53742 3
    endloop
  endfacet
  facet normal 0 0 1
    outer loop
      vertex 0 17 3
      vertex 6.69472 13.8156 3
      vertex 6.52213 14.2611 3
    endloop
  endfacet
  facet normal 0 0 1
    outer loop
      vertex 6.69472 13.8156 3
      vertex 0 17 3
      vertex 6.69472 3.18436 3
    endloop
  endfacet
  facet normal 0 0 1
    outer loop
      vertex 9.01221 14.0304 3
      vertex 10 17 3
      vertex 9.1 14.5 3
    endloop
  endfacet
  facet normal 0 0 1
    outer loop
      vertex 10 17 3
      vertex 9.01221 14.9696 3
      vertex 9.1 14.5 3
    endloop
  endfacet
  facet normal 0 0 1
    outer loop
      vertex 10 17 3
      vertex 8.76071 15.3758 3
      vertex 9.01221 14.9696 3
    endloop
  endfacet
  facet normal 0 0 1
    outer loop
      vertex 10 17 3
      vertex 8.37946 15.6637 3
      vertex 8.76071 15.3758 3
    endloop
  endfacet
  facet normal 0 0 1
    outer loop
      vertex 10 17 3
      vertex 7.91995 15.7945 3
      vertex 8.37946 15.6637 3
    endloop
  endfacet
  facet normal 0 0 1
    outer loop
      vertex 10 17 3
      vertex 7.44424 15.7504 3
      vertex 7.91995 15.7945 3
    endloop
  endfacet
  facet normal 0 0 1
    outer loop
      vertex 0 17 3
      vertex 6.52213 14.2611 3
      vertex 6.52213 14.7389 3
    endloop
  endfacet
  facet normal 0 0 1
    outer loop
      vertex 0 0 3
      vertex 6.69472 3.18436 3
      vertex 0 17 3
    endloop
  endfacet
  facet normal 0 0 1
    outer loop
      vertex 6.69472 3.18436 3
      vertex 0 0 3
      vertex 6.52213 2.73887 3
    endloop
  endfacet
  facet normal 0 0 1
    outer loop
      vertex 6.69472 15.1844 3
      vertex 0 17 3
      vertex 6.52213 14.7389 3
    endloop
  endfacet
  facet normal 0 0 1
    outer loop
      vertex 7.01657 15.5374 3
      vertex 0 17 3
      vertex 6.69472 15.1844 3
    endloop
  endfacet
  facet normal 0 0 1
    outer loop
      vertex 7.44424 15.7504 3
      vertex 0 17 3
      vertex 7.01657 15.5374 3
    endloop
  endfacet
  facet normal -0 0 1
    outer loop
      vertex 0 17 3
      vertex 7.44424 15.7504 3
      vertex 10 17 3
    endloop
  endfacet
  facet normal 0 0 1
    outer loop
      vertex 10 17 3
      vertex 9.01221 14.0304 3
      vertex 10 0 3
    endloop
  endfacet
  facet normal -0 0 1
    outer loop
      vertex 9.01221 2.03039 3
      vertex 10 0 3
      vertex 9.1 2.5 3
    endloop
  endfacet
  facet normal -0 0 1
    outer loop
      vertex 8.76071 1.6242 3
      vertex 10 0 3
      vertex 9.01221 2.03039 3
    endloop
  endfacet
  facet normal -0 0 1
    outer loop
      vertex 8.37946 1.33629 3
      vertex 10 0 3
      vertex 8.76071 1.6242 3
    endloop
  endfacet
  facet normal -0 0 1
    outer loop
      vertex 7.91995 1.20555 3
      vertex 10 0 3
      vertex 8.37946 1.33629 3
    endloop
  endfacet
  facet normal 0 0 1
    outer loop
      vertex 7.44424 1.24963 3
      vertex 10 0 3
      vertex 7.91995 1.20555 3
    endloop
  endfacet
  facet normal 0 0 1
    outer loop
      vertex 6.52213 2.73887 3
      vertex 0 0 3
      vertex 6.52213 2.26113 3
    endloop
  endfacet
  facet normal 0 0 1
    outer loop
      vertex 7.44424 1.24963 3
      vertex 0 0 3
      vertex 10 0 3
    endloop
  endfacet
  facet normal 0 0 1
    outer loop
      vertex 7.01657 1.46258 3
      vertex 0 0 3
      vertex 7.44424 1.24963 3
    endloop
  endfacet
  facet normal 0 0 1
    outer loop
      vertex 6.69472 1.81564 3
      vertex 0 0 3
      vertex 7.01657 1.46258 3
    endloop
  endfacet
  facet normal 0 0 1
    outer loop
      vertex 6.52213 2.26113 3
      vertex 0 0 3
      vertex 6.69472 1.81564 3
    endloop
  endfacet
  facet normal 0 0 1
    outer loop
      vertex 66.6 17 3
      vertex 59.7607 13.6242 3
      vertex 66.6 0 3
    endloop
  endfacet
  facet normal 0 0 1
    outer loop
      vertex 66.6 0 3
      vertex 60.0122 2.96961 3
      vertex 60.1 2.5 3
    endloop
  endfacet
  facet normal -0 0 1
    outer loop
      vertex 59.7607 3.3758 3
      vertex 66.6 0 3
      vertex 59.7607 13.6242 3
    endloop
  endfacet
  facet normal 0 0 1
    outer loop
      vertex 66.6 0 3
      vertex 59.7607 3.3758 3
      vertex 60.0122 2.96961 3
    endloop
  endfacet
  facet normal -0 0 1
    outer loop
      vertex 59.3795 13.3363 3
      vertex 59.7607 3.3758 3
      vertex 59.7607 13.6242 3
    endloop
  endfacet
  facet normal 0 0 1
    outer loop
      vertex 59.3795 13.3363 3
      vertex 59.3795 3.66371 3
      vertex 59.7607 3.3758 3
    endloop
  endfacet
  facet normal -0 0 1
    outer loop
      vertex 58.9199 13.2055 3
      vertex 59.3795 3.66371 3
      vertex 59.3795 13.3363 3
    endloop
  endfacet
  facet normal 0 0 1
    outer loop
      vertex 58.9199 13.2055 3
      vertex 58.9199 3.79445 3
      vertex 59.3795 3.66371 3
    endloop
  endfacet
  facet normal 0 0 1
    outer loop
      vertex 58.4442 13.2496 3
      vertex 58.9199 3.79445 3
      vertex 58.9199 13.2055 3
    endloop
  endfacet
  facet normal 0 0 1
    outer loop
      vertex 58.4442 13.2496 3
      vertex 58.4442 3.75037 3
      vertex 58.9199 3.79445 3
    endloop
  endfacet
  facet normal 0 0 1
    outer loop
      vertex 58.0166 13.4626 3
      vertex 58.4442 3.75037 3
      vertex 58.4442 13.2496 3
    endloop
  endfacet
  facet normal 0 0 1
    outer loop
      vertex 58.0166 13.4626 3
      vertex 58.0166 3.53742 3
      vertex 58.4442 3.75037 3
    endloop
  endfacet
  facet normal 0 0 1
    outer loop
      vertex 57.6947 13.8156 3
      vertex 58.0166 3.53742 3
      vertex 58.0166 13.4626 3
    endloop
  endfacet
  facet normal 0 0 1
    outer loop
      vertex 57.6947 13.8156 3
      vertex 57.6947 3.18436 3
      vertex 58.0166 3.53742 3
    endloop
  endfacet
  facet normal 0 0 1
    outer loop
      vertex 57.5221 14.2611 3
      vertex 57.6947 3.18436 3
      vertex 57.6947 13.8156 3
    endloop
  endfacet
  facet normal 0 0 1
    outer loop
      vertex 57.6947 3.18436 3
      vertex 57.5221 14.2611 3
      vertex 57.5221 2.73887 3
    endloop
  endfacet
  facet normal 0 0 1
    outer loop
      vertex 60.0122 14.0304 3
      vertex 66.6 17 3
      vertex 60.1 14.5 3
    endloop
  endfacet
  facet normal 0 0 1
    outer loop
      vertex 66.6 17 3
      vertex 60.0122 14.9696 3
      vertex 60.1 14.5 3
    endloop
  endfacet
  facet normal 0 0 1
    outer loop
      vertex 66.6 17 3
      vertex 59.7607 15.3758 3
      vertex 60.0122 14.9696 3
    endloop
  endfacet
  facet normal 0 0 1
    outer loop
      vertex 66.6 17 3
      vertex 59.3795 15.6637 3
      vertex 59.7607 15.3758 3
    endloop
  endfacet
  facet normal -0 0 1
    outer loop
      vertex 56.61 17 3
      vertex 59.3795 15.6637 3
      vertex 66.6 17 3
    endloop
  endfacet
  facet normal 0 0 1
    outer loop
      vertex 59.3795 15.6637 3
      vertex 56.61 17 3
      vertex 58.9199 15.7945 3
    endloop
  endfacet
  facet normal 0 0 1
    outer loop
      vertex 56.61 17 3
      vertex 57.5221 14.2611 3
      vertex 57.5221 14.7389 3
    endloop
  endfacet
  facet normal 0 0 1
    outer loop
      vertex 57.5221 14.2611 3
      vertex 56.61 17 3
      vertex 57.5221 2.73887 3
    endloop
  endfacet
  facet normal 0 0 1
    outer loop
      vertex 56.61 0 3
      vertex 57.5221 2.73887 3
      vertex 56.61 17 3
    endloop
  endfacet
  facet normal 0 0 1
    outer loop
      vertex 57.6947 15.1844 3
      vertex 56.61 17 3
      vertex 57.5221 14.7389 3
    endloop
  endfacet
  facet normal 0 0 1
    outer loop
      vertex 58.0166 15.5374 3
      vertex 56.61 17 3
      vertex 57.6947 15.1844 3
    endloop
  endfacet
  facet normal 0 0 1
    outer loop
      vertex 58.4442 15.7504 3
      vertex 56.61 17 3
      vertex 58.0166 15.5374 3
    endloop
  endfacet
  facet normal 0 0 1
    outer loop
      vertex 58.9199 15.7945 3
      vertex 56.61 17 3
      vertex 58.4442 15.7504 3
    endloop
  endfacet
  facet normal 0 0 1
    outer loop
      vertex 59.7607 13.6242 3
      vertex 66.6 17 3
      vertex 60.0122 14.0304 3
    endloop
  endfacet
  facet normal -0 0 1
    outer loop
      vertex 60.0122 2.03039 3
      vertex 66.6 0 3
      vertex 60.1 2.5 3
    endloop
  endfacet
  facet normal -0 0 1
    outer loop
      vertex 59.7607 1.6242 3
      vertex 66.6 0 3
      vertex 60.0122 2.03039 3
    endloop
  endfacet
  facet normal -0 0 1
    outer loop
      vertex 59.3795 1.33629 3
      vertex 66.6 0 3
      vertex 59.7607 1.6242 3
    endloop
  endfacet
  facet normal 0 0 1
    outer loop
      vertex 56.61 0 3
      vertex 59.3795 1.33629 3
      vertex 58.9199 1.20555 3
    endloop
  endfacet
  facet normal 0 0 1
    outer loop
      vertex 56.61 0 3
      vertex 58.9199 1.20555 3
      vertex 58.4442 1.24963 3
    endloop
  endfacet
  facet normal 0 0 1
    outer loop
      vertex 59.3795 1.33629 3
      vertex 56.61 0 3
      vertex 66.6 0 3
    endloop
  endfacet
  facet normal 0 0 1
    outer loop
      vertex 58.0166 1.46258 3
      vertex 56.61 0 3
      vertex 58.4442 1.24963 3
    endloop
  endfacet
  facet normal 0 0 1
    outer loop
      vertex 57.6947 1.81564 3
      vertex 56.61 0 3
      vertex 58.0166 1.46258 3
    endloop
  endfacet
  facet normal 0 0 1
    outer loop
      vertex 57.5221 2.26113 3
      vertex 56.61 0 3
      vertex 57.6947 1.81564 3
    endloop
  endfacet
  facet normal 0 0 1
    outer loop
      vertex 57.5221 2.73887 3
      vertex 56.61 0 3
      vertex 57.5221 2.26113 3
    endloop
  endfacet
  facet normal 1 -0 0
    outer loop
      vertex 56.61 0 43.6
      vertex 56.61 17 3
      vertex 56.61 17 43.6
    endloop
  endfacet
  facet normal 1 0 0
    outer loop
      vertex 56.61 17 3
      vertex 56.61 0 43.6
      vertex 56.61 0 3
    endloop
  endfacet
  facet normal -1 0 0
    outer loop
      vertex 53.6 17 0
      vertex 53.6 12.95 36.6
      vertex 53.6 17 36.6
    endloop
  endfacet
  facet normal -1 0 0
    outer loop
      vertex 53.6 12.95 36.6
      vertex 53.6 4.05 36.6
      vertex 53.6 12.95 40.6
    endloop
  endfacet
  facet normal -1 0 0
    outer loop
      vertex 53.6 17 0
      vertex 53.6 4.05 36.6
      vertex 53.6 12.95 36.6
    endloop
  endfacet
  facet normal -1 0 0
    outer loop
      vertex 53.6 0 0
      vertex 53.6 4.05 36.6
      vertex 53.6 17 0
    endloop
  endfacet
  facet normal -1 -0 0
    outer loop
      vertex 53.6 4.05 36.6
      vertex 53.6 0 0
      vertex 53.6 0 36.6
    endloop
  endfacet
  facet normal -1 -0 0
    outer loop
      vertex 53.6 12.95 40.6
      vertex 53.6 4.05 36.6
      vertex 53.6 4.05 40.6
    endloop
  endfacet
  facet normal 0 0 -1
    outer loop
      vertex 13 12.95 36.6
      vertex 53.6 17 36.6
      vertex 53.6 12.95 36.6
    endloop
  endfacet
  facet normal -0 0 -1
    outer loop
      vertex 53.6 17 36.6
      vertex 13 12.95 36.6
      vertex 13 17 36.6
    endloop
  endfacet
  facet normal 0 0 -1
    outer loop
      vertex 13 0 36.6
      vertex 53.6 4.05 36.6
      vertex 53.6 0 36.6
    endloop
  endfacet
  facet normal -0 0 -1
    outer loop
      vertex 53.6 4.05 36.6
      vertex 13 0 36.6
      vertex 13 4.05 36.6
    endloop
  endfacet
  facet normal 1 0 0
    outer loop
      vertex 13 12.95 40.6
      vertex 13 4.05 40.6
      vertex 13 12.95 36.6
    endloop
  endfacet
  facet normal 1 -0 0
    outer loop
      vertex 13 12.95 36.6
      vertex 13 17 0
      vertex 13 17 36.6
    endloop
  endfacet
  facet normal 1 0 0
    outer loop
      vertex 13 4.05 36.6
      vertex 13 12.95 36.6
      vertex 13 4.05 40.6
    endloop
  endfacet
  facet normal 1 0 0
    outer loop
      vertex 13 12.95 36.6
      vertex 13 4.05 36.6
      vertex 13 17 0
    endloop
  endfacet
  facet normal 1 0 0
    outer loop
      vertex 13 0 0
      vertex 13 4.05 36.6
      vertex 13 0 36.6
    endloop
  endfacet
  facet normal 1 0 0
    outer loop
      vertex 13 4.05 36.6
      vertex 13 0 0
      vertex 13 17 0
    endloop
  endfacet
  facet normal 0 0 -1
    outer loop
      vertex 13 4.05 40.6
      vertex 53.6 12.95 40.6
      vertex 53.6 4.05 40.6
    endloop
  endfacet
  facet normal -0 0 -1
    outer loop
      vertex 53.6 12.95 40.6
      vertex 13 4.05 40.6
      vertex 13 12.95 40.6
    endloop
  endfacet
  facet normal 0 -1 0
    outer loop
      vertex 13 12.95 36.6
      vertex 53.6 12.95 40.6
      vertex 13 12.95 40.6
    endloop
  endfacet
  facet normal 0 -1 -0
    outer loop
      vertex 53.6 12.95 40.6
      vertex 13 12.95 36.6
      vertex 53.6 12.95 36.6
    endloop
  endfacet
  facet normal 0 1 -0
    outer loop
      vertex 53.6 4.05 36.6
      vertex 13 4.05 40.6
      vertex 53.6 4.05 40.6
    endloop
  endfacet
  facet normal 0 1 0
    outer loop
      vertex 13 4.05 40.6
      vertex 53.6 4.05 36.6
      vertex 13 4.05 36.6
    endloop
  endfacet
  facet normal -0.850219 -0.526429 0
    outer loop
      vertex 9.01221 2.96961 0
      vertex 8.76071 3.3758 3
      vertex 8.76071 3.3758 0
    endloop
  endfacet
  facet normal -0.850219 -0.526429 0
    outer loop
      vertex 8.76071 3.3758 3
      vertex 9.01221 2.96961 0
      vertex 9.01221 2.96961 3
    endloop
  endfacet
  facet normal -0.982971 -0.183759 0
    outer loop
      vertex 9.1 2.5 0
      vertex 9.01221 2.96961 3
      vertex 9.01221 2.96961 0
    endloop
  endfacet
  facet normal -0.982971 -0.183759 0
    outer loop
      vertex 9.01221 2.96961 3
      vertex 9.1 2.5 0
      vertex 9.1 2.5 3
    endloop
  endfacet
  facet normal -0.602639 -0.798014 0
    outer loop
      vertex 8.37946 3.66371 0
      vertex 8.76071 3.3758 3
      vertex 8.37946 3.66371 3
    endloop
  endfacet
  facet normal -0.602639 -0.798014 -0
    outer loop
      vertex 8.76071 3.3758 3
      vertex 8.37946 3.66371 0
      vertex 8.76071 3.3758 0
    endloop
  endfacet
  facet normal -0.850219 0.526429 0
    outer loop
      vertex 8.76071 1.6242 0
      vertex 9.01221 2.03039 3
      vertex 9.01221 2.03039 0
    endloop
  endfacet
  facet normal -0.850219 0.526429 0
    outer loop
      vertex 9.01221 2.03039 3
      vertex 8.76071 1.6242 0
      vertex 8.76071 1.6242 3
    endloop
  endfacet
  facet normal -0.602639 0.798014 0
    outer loop
      vertex 8.76071 1.6242 0
      vertex 8.37946 1.33629 3
      vertex 8.76071 1.6242 3
    endloop
  endfacet
  facet normal -0.602639 0.798014 0
    outer loop
      vertex 8.37946 1.33629 3
      vertex 8.76071 1.6242 0
      vertex 8.37946 1.33629 0
    endloop
  endfacet
  facet normal 0.739016 -0.673688 0
    outer loop
      vertex 6.69472 3.18436 3
      vertex 7.01657 3.53742 0
      vertex 7.01657 3.53742 3
    endloop
  endfacet
  facet normal 0.739016 -0.673688 0
    outer loop
      vertex 7.01657 3.53742 0
      vertex 6.69472 3.18436 3
      vertex 6.69472 3.18436 0
    endloop
  endfacet
  facet normal -0.982971 0.183759 0
    outer loop
      vertex 9.01221 2.03039 0
      vertex 9.1 2.5 3
      vertex 9.1 2.5 0
    endloop
  endfacet
  facet normal -0.982971 0.183759 0
    outer loop
      vertex 9.1 2.5 3
      vertex 9.01221 2.03039 0
      vertex 9.01221 2.03039 3
    endloop
  endfacet
  facet normal -0.273659 0.961827 0
    outer loop
      vertex 8.37946 1.33629 0
      vertex 7.91995 1.20555 3
      vertex 8.37946 1.33629 3
    endloop
  endfacet
  facet normal -0.273659 0.961827 0
    outer loop
      vertex 7.91995 1.20555 3
      vertex 8.37946 1.33629 0
      vertex 7.91995 1.20555 0
    endloop
  endfacet
  facet normal 0.0922662 -0.995734 0
    outer loop
      vertex 7.44424 3.75037 0
      vertex 7.91995 3.79445 3
      vertex 7.44424 3.75037 3
    endloop
  endfacet
  facet normal 0.0922662 -0.995734 0
    outer loop
      vertex 7.91995 3.79445 3
      vertex 7.44424 3.75037 0
      vertex 7.91995 3.79445 0
    endloop
  endfacet
  facet normal 0.0922662 0.995734 -0
    outer loop
      vertex 7.91995 1.20555 0
      vertex 7.44424 1.24963 3
      vertex 7.91995 1.20555 3
    endloop
  endfacet
  facet normal 0.0922662 0.995734 0
    outer loop
      vertex 7.44424 1.24963 3
      vertex 7.91995 1.20555 0
      vertex 7.44424 1.24963 0
    endloop
  endfacet
  facet normal 0.932468 0.361253 0
    outer loop
      vertex 6.69472 1.81564 3
      vertex 6.52213 2.26113 0
      vertex 6.52213 2.26113 3
    endloop
  endfacet
  facet normal 0.932468 0.361253 0
    outer loop
      vertex 6.52213 2.26113 0
      vertex 6.69472 1.81564 3
      vertex 6.69472 1.81564 0
    endloop
  endfacet
  facet normal 1 -0 0
    outer loop
      vertex 6.52213 2.26113 3
      vertex 6.52213 2.73887 0
      vertex 6.52213 2.73887 3
    endloop
  endfacet
  facet normal 1 0 0
    outer loop
      vertex 6.52213 2.73887 0
      vertex 6.52213 2.26113 3
      vertex 6.52213 2.26113 0
    endloop
  endfacet
  facet normal -0.273659 -0.961827 0
    outer loop
      vertex 7.91995 3.79445 0
      vertex 8.37946 3.66371 3
      vertex 7.91995 3.79445 3
    endloop
  endfacet
  facet normal -0.273659 -0.961827 -0
    outer loop
      vertex 8.37946 3.66371 3
      vertex 7.91995 3.79445 0
      vertex 8.37946 3.66371 0
    endloop
  endfacet
  facet normal 0.932468 -0.361253 0
    outer loop
      vertex 6.52213 2.73887 3
      vertex 6.69472 3.18436 0
      vertex 6.69472 3.18436 3
    endloop
  endfacet
  facet normal 0.932468 -0.361253 0
    outer loop
      vertex 6.69472 3.18436 0
      vertex 6.52213 2.73887 3
      vertex 6.52213 2.73887 0
    endloop
  endfacet
  facet normal 0.445731 -0.895167 0
    outer loop
      vertex 7.01657 3.53742 0
      vertex 7.44424 3.75037 3
      vertex 7.01657 3.53742 3
    endloop
  endfacet
  facet normal 0.445731 -0.895167 0
    outer loop
      vertex 7.44424 3.75037 3
      vertex 7.01657 3.53742 0
      vertex 7.44424 3.75037 0
    endloop
  endfacet
  facet normal 0.739016 0.673688 0
    outer loop
      vertex 7.01657 1.46258 3
      vertex 6.69472 1.81564 0
      vertex 6.69472 1.81564 3
    endloop
  endfacet
  facet normal 0.739016 0.673688 0
    outer loop
      vertex 6.69472 1.81564 0
      vertex 7.01657 1.46258 3
      vertex 7.01657 1.46258 0
    endloop
  endfacet
  facet normal 0.445731 0.895167 -0
    outer loop
      vertex 7.44424 1.24963 0
      vertex 7.01657 1.46258 3
      vertex 7.44424 1.24963 3
    endloop
  endfacet
  facet normal 0.445731 0.895167 0
    outer loop
      vertex 7.01657 1.46258 3
      vertex 7.44424 1.24963 0
      vertex 7.01657 1.46258 0
    endloop
  endfacet
  facet normal -0.850219 -0.526429 0
    outer loop
      vertex 60.0122 2.96961 0
      vertex 59.7607 3.3758 3
      vertex 59.7607 3.3758 0
    endloop
  endfacet
  facet normal -0.850219 -0.526429 0
    outer loop
      vertex 59.7607 3.3758 3
      vertex 60.0122 2.96961 0
      vertex 60.0122 2.96961 3
    endloop
  endfacet
  facet normal -0.982968 -0.183779 0
    outer loop
      vertex 60.1 2.5 0
      vertex 60.0122 2.96961 3
      vertex 60.0122 2.96961 0
    endloop
  endfacet
  facet normal -0.982968 -0.183779 0
    outer loop
      vertex 60.0122 2.96961 3
      vertex 60.1 2.5 0
      vertex 60.1 2.5 3
    endloop
  endfacet
  facet normal -0.602689 -0.797976 0
    outer loop
      vertex 59.3795 3.66371 0
      vertex 59.7607 3.3758 3
      vertex 59.3795 3.66371 3
    endloop
  endfacet
  facet normal -0.602689 -0.797976 -0
    outer loop
      vertex 59.7607 3.3758 3
      vertex 59.3795 3.66371 0
      vertex 59.7607 3.3758 0
    endloop
  endfacet
  facet normal -0.850219 0.526429 0
    outer loop
      vertex 59.7607 1.6242 0
      vertex 60.0122 2.03039 3
      vertex 60.0122 2.03039 0
    endloop
  endfacet
  facet normal -0.850219 0.526429 0
    outer loop
      vertex 60.0122 2.03039 3
      vertex 59.7607 1.6242 0
      vertex 59.7607 1.6242 3
    endloop
  endfacet
  facet normal -0.602689 0.797976 0
    outer loop
      vertex 59.7607 1.6242 0
      vertex 59.3795 1.33629 3
      vertex 59.7607 1.6242 3
    endloop
  endfacet
  facet normal -0.602689 0.797976 0
    outer loop
      vertex 59.3795 1.33629 3
      vertex 59.7607 1.6242 0
      vertex 59.3795 1.33629 0
    endloop
  endfacet
  facet normal 0.738964 -0.673745 0
    outer loop
      vertex 57.6947 3.18436 3
      vertex 58.0166 3.53742 0
      vertex 58.0166 3.53742 3
    endloop
  endfacet
  facet normal 0.738964 -0.673745 0
    outer loop
      vertex 58.0166 3.53742 0
      vertex 57.6947 3.18436 3
      vertex 57.6947 3.18436 0
    endloop
  endfacet
  facet normal -0.982968 0.183779 0
    outer loop
      vertex 60.0122 2.03039 0
      vertex 60.1 2.5 3
      vertex 60.1 2.5 0
    endloop
  endfacet
  facet normal -0.982968 0.183779 0
    outer loop
      vertex 60.1 2.5 3
      vertex 60.0122 2.03039 0
      vertex 60.0122 2.03039 3
    endloop
  endfacet
  facet normal -0.27361 0.961841 0
    outer loop
      vertex 59.3795 1.33629 0
      vertex 58.9199 1.20555 3
      vertex 59.3795 1.33629 3
    endloop
  endfacet
  facet normal -0.27361 0.961841 0
    outer loop
      vertex 58.9199 1.20555 3
      vertex 59.3795 1.33629 0
      vertex 58.9199 1.20555 0
    endloop
  endfacet
  facet normal 0.0922682 -0.995734 0
    outer loop
      vertex 58.4442 3.75037 0
      vertex 58.9199 3.79445 3
      vertex 58.4442 3.75037 3
    endloop
  endfacet
  facet normal 0.0922682 -0.995734 0
    outer loop
      vertex 58.9199 3.79445 3
      vertex 58.4442 3.75037 0
      vertex 58.9199 3.79445 0
    endloop
  endfacet
  facet normal 0.0922682 0.995734 -0
    outer loop
      vertex 58.9199 1.20555 0
      vertex 58.4442 1.24963 3
      vertex 58.9199 1.20555 3
    endloop
  endfacet
  facet normal 0.0922682 0.995734 0
    outer loop
      vertex 58.4442 1.24963 3
      vertex 58.9199 1.20555 0
      vertex 58.4442 1.24963 0
    endloop
  endfacet
  facet normal 0.932461 0.361271 0
    outer loop
      vertex 57.6947 1.81564 3
      vertex 57.5221 2.26113 0
      vertex 57.5221 2.26113 3
    endloop
  endfacet
  facet normal 0.932461 0.361271 0
    outer loop
      vertex 57.5221 2.26113 0
      vertex 57.6947 1.81564 3
      vertex 57.6947 1.81564 0
    endloop
  endfacet
  facet normal 1 -0 0
    outer loop
      vertex 57.5221 2.26113 3
      vertex 57.5221 2.73887 0
      vertex 57.5221 2.73887 3
    endloop
  endfacet
  facet normal 1 0 0
    outer loop
      vertex 57.5221 2.73887 0
      vertex 57.5221 2.26113 3
      vertex 57.5221 2.26113 0
    endloop
  endfacet
  facet normal -0.27361 -0.961841 0
    outer loop
      vertex 58.9199 3.79445 0
      vertex 59.3795 3.66371 3
      vertex 58.9199 3.79445 3
    endloop
  endfacet
  facet normal -0.27361 -0.961841 -0
    outer loop
      vertex 59.3795 3.66371 3
      vertex 58.9199 3.79445 0
      vertex 59.3795 3.66371 0
    endloop
  endfacet
  facet normal 0.932461 -0.361271 0
    outer loop
      vertex 57.5221 2.73887 3
      vertex 57.6947 3.18436 0
      vertex 57.6947 3.18436 3
    endloop
  endfacet
  facet normal 0.932461 -0.361271 0
    outer loop
      vertex 57.6947 3.18436 0
      vertex 57.5221 2.73887 3
      vertex 57.5221 2.73887 0
    endloop
  endfacet
  facet normal 0.44579 -0.895138 0
    outer loop
      vertex 58.0166 3.53742 0
      vertex 58.4442 3.75037 3
      vertex 58.0166 3.53742 3
    endloop
  endfacet
  facet normal 0.44579 -0.895138 0
    outer loop
      vertex 58.4442 3.75037 3
      vertex 58.0166 3.53742 0
      vertex 58.4442 3.75037 0
    endloop
  endfacet
  facet normal 0.738964 0.673745 0
    outer loop
      vertex 58.0166 1.46258 3
      vertex 57.6947 1.81564 0
      vertex 57.6947 1.81564 3
    endloop
  endfacet
  facet normal 0.738964 0.673745 0
    outer loop
      vertex 57.6947 1.81564 0
      vertex 58.0166 1.46258 3
      vertex 58.0166 1.46258 0
    endloop
  endfacet
  facet normal 0.44579 0.895138 -0
    outer loop
      vertex 58.4442 1.24963 0
      vertex 58.0166 1.46258 3
      vertex 58.4442 1.24963 3
    endloop
  endfacet
  facet normal 0.44579 0.895138 0
    outer loop
      vertex 58.0166 1.46258 3
      vertex 58.4442 1.24963 0
      vertex 58.0166 1.46258 0
    endloop
  endfacet
  facet normal -0.850225 -0.526419 0
    outer loop
      vertex 9.01221 14.9696 0
      vertex 8.76071 15.3758 3
      vertex 8.76071 15.3758 0
    endloop
  endfacet
  facet normal -0.850225 -0.526419 0
    outer loop
      vertex 8.76071 15.3758 3
      vertex 9.01221 14.9696 0
      vertex 9.01221 14.9696 3
    endloop
  endfacet
  facet normal -0.982971 -0.183763 0
    outer loop
      vertex 9.1 14.5 0
      vertex 9.01221 14.9696 3
      vertex 9.01221 14.9696 0
    endloop
  endfacet
  facet normal -0.982971 -0.183763 0
    outer loop
      vertex 9.01221 14.9696 3
      vertex 9.1 14.5 0
      vertex 9.1 14.5 3
    endloop
  endfacet
  facet normal -0.602626 -0.798024 0
    outer loop
      vertex 8.37946 15.6637 0
      vertex 8.76071 15.3758 3
      vertex 8.37946 15.6637 3
    endloop
  endfacet
  facet normal -0.602626 -0.798024 -0
    outer loop
      vertex 8.76071 15.3758 3
      vertex 8.37946 15.6637 0
      vertex 8.76071 15.3758 0
    endloop
  endfacet
  facet normal -0.850225 0.526419 0
    outer loop
      vertex 8.76071 13.6242 0
      vertex 9.01221 14.0304 3
      vertex 9.01221 14.0304 0
    endloop
  endfacet
  facet normal -0.850225 0.526419 0
    outer loop
      vertex 9.01221 14.0304 3
      vertex 8.76071 13.6242 0
      vertex 8.76071 13.6242 3
    endloop
  endfacet
  facet normal -0.602626 0.798024 0
    outer loop
      vertex 8.76071 13.6242 0
      vertex 8.37946 13.3363 3
      vertex 8.76071 13.6242 3
    endloop
  endfacet
  facet normal -0.602626 0.798024 0
    outer loop
      vertex 8.37946 13.3363 3
      vertex 8.76071 13.6242 0
      vertex 8.37946 13.3363 0
    endloop
  endfacet
  facet normal 0.738959 -0.67375 0
    outer loop
      vertex 6.69472 15.1844 3
      vertex 7.01657 15.5374 0
      vertex 7.01657 15.5374 3
    endloop
  endfacet
  facet normal 0.738959 -0.67375 0
    outer loop
      vertex 7.01657 15.5374 0
      vertex 6.69472 15.1844 3
      vertex 6.69472 15.1844 0
    endloop
  endfacet
  facet normal -0.982971 0.183763 0
    outer loop
      vertex 9.01221 14.0304 0
      vertex 9.1 14.5 3
      vertex 9.1 14.5 0
    endloop
  endfacet
  facet normal -0.982971 0.183763 0
    outer loop
      vertex 9.1 14.5 3
      vertex 9.01221 14.0304 0
      vertex 9.01221 14.0304 3
    endloop
  endfacet
  facet normal -0.273776 0.961794 0
    outer loop
      vertex 8.37946 13.3363 0
      vertex 7.91995 13.2055 3
      vertex 8.37946 13.3363 3
    endloop
  endfacet
  facet normal -0.273776 0.961794 0
    outer loop
      vertex 7.91995 13.2055 3
      vertex 8.37946 13.3363 0
      vertex 7.91995 13.2055 0
    endloop
  endfacet
  facet normal 0.0923077 -0.995731 0
    outer loop
      vertex 7.44424 15.7504 0
      vertex 7.91995 15.7945 3
      vertex 7.44424 15.7504 3
    endloop
  endfacet
  facet normal 0.0923077 -0.995731 0
    outer loop
      vertex 7.91995 15.7945 3
      vertex 7.44424 15.7504 0
      vertex 7.91995 15.7945 0
    endloop
  endfacet
  facet normal 0.0923077 0.995731 -0
    outer loop
      vertex 7.91995 13.2055 0
      vertex 7.44424 13.2496 3
      vertex 7.91995 13.2055 3
    endloop
  endfacet
  facet normal 0.0923077 0.995731 0
    outer loop
      vertex 7.44424 13.2496 3
      vertex 7.91995 13.2055 0
      vertex 7.44424 13.2496 0
    endloop
  endfacet
  facet normal 0.932471 0.361246 0
    outer loop
      vertex 6.69472 13.8156 3
      vertex 6.52213 14.2611 0
      vertex 6.52213 14.2611 3
    endloop
  endfacet
  facet normal 0.932471 0.361246 0
    outer loop
      vertex 6.52213 14.2611 0
      vertex 6.69472 13.8156 3
      vertex 6.69472 13.8156 0
    endloop
  endfacet
  facet normal 1 -0 0
    outer loop
      vertex 6.52213 14.2611 3
      vertex 6.52213 14.7389 0
      vertex 6.52213 14.7389 3
    endloop
  endfacet
  facet normal 1 0 0
    outer loop
      vertex 6.52213 14.7389 0
      vertex 6.52213 14.2611 3
      vertex 6.52213 14.2611 0
    endloop
  endfacet
  facet normal -0.273776 -0.961794 0
    outer loop
      vertex 7.91995 15.7945 0
      vertex 8.37946 15.6637 3
      vertex 7.91995 15.7945 3
    endloop
  endfacet
  facet normal -0.273776 -0.961794 -0
    outer loop
      vertex 8.37946 15.6637 3
      vertex 7.91995 15.7945 0
      vertex 8.37946 15.6637 0
    endloop
  endfacet
  facet normal 0.932471 -0.361246 0
    outer loop
      vertex 6.52213 14.7389 3
      vertex 6.69472 15.1844 0
      vertex 6.69472 15.1844 3
    endloop
  endfacet
  facet normal 0.932471 -0.361246 0
    outer loop
      vertex 6.69472 15.1844 0
      vertex 6.52213 14.7389 3
      vertex 6.52213 14.7389 0
    endloop
  endfacet
  facet normal 0.445815 -0.895125 0
    outer loop
      vertex 7.01657 15.5374 0
      vertex 7.44424 15.7504 3
      vertex 7.01657 15.5374 3
    endloop
  endfacet
  facet normal 0.445815 -0.895125 0
    outer loop
      vertex 7.44424 15.7504 3
      vertex 7.01657 15.5374 0
      vertex 7.44424 15.7504 0
    endloop
  endfacet
  facet normal 0.738959 0.67375 0
    outer loop
      vertex 7.01657 13.4626 3
      vertex 6.69472 13.8156 0
      vertex 6.69472 13.8156 3
    endloop
  endfacet
  facet normal 0.738959 0.67375 0
    outer loop
      vertex 6.69472 13.8156 0
      vertex 7.01657 13.4626 3
      vertex 7.01657 13.4626 0
    endloop
  endfacet
  facet normal 0.445815 0.895125 -0
    outer loop
      vertex 7.44424 13.2496 0
      vertex 7.01657 13.4626 3
      vertex 7.44424 13.2496 3
    endloop
  endfacet
  facet normal 0.445815 0.895125 0
    outer loop
      vertex 7.01657 13.4626 3
      vertex 7.44424 13.2496 0
      vertex 7.01657 13.4626 0
    endloop
  endfacet
  facet normal -0.850225 -0.526419 0
    outer loop
      vertex 60.0122 14.9696 0
      vertex 59.7607 15.3758 3
      vertex 59.7607 15.3758 0
    endloop
  endfacet
  facet normal -0.850225 -0.526419 0
    outer loop
      vertex 59.7607 15.3758 3
      vertex 60.0122 14.9696 0
      vertex 60.0122 14.9696 3
    endloop
  endfacet
  facet normal -0.982967 -0.183783 0
    outer loop
      vertex 60.1 14.5 0
      vertex 60.0122 14.9696 3
      vertex 60.0122 14.9696 0
    endloop
  endfacet
  facet normal -0.982967 -0.183783 0
    outer loop
      vertex 60.0122 14.9696 3
      vertex 60.1 14.5 0
      vertex 60.1 14.5 3
    endloop
  endfacet
  facet normal -0.602676 -0.797986 0
    outer loop
      vertex 59.3795 15.6637 0
      vertex 59.7607 15.3758 3
      vertex 59.3795 15.6637 3
    endloop
  endfacet
  facet normal -0.602676 -0.797986 -0
    outer loop
      vertex 59.7607 15.3758 3
      vertex 59.3795 15.6637 0
      vertex 59.7607 15.3758 0
    endloop
  endfacet
  facet normal -0.850225 0.526419 0
    outer loop
      vertex 59.7607 13.6242 0
      vertex 60.0122 14.0304 3
      vertex 60.0122 14.0304 0
    endloop
  endfacet
  facet normal -0.850225 0.526419 0
    outer loop
      vertex 60.0122 14.0304 3
      vertex 59.7607 13.6242 0
      vertex 59.7607 13.6242 3
    endloop
  endfacet
  facet normal -0.602676 0.797986 0
    outer loop
      vertex 59.7607 13.6242 0
      vertex 59.3795 13.3363 3
      vertex 59.7607 13.6242 3
    endloop
  endfacet
  facet normal -0.602676 0.797986 0
    outer loop
      vertex 59.3795 13.3363 3
      vertex 59.7607 13.6242 0
      vertex 59.3795 13.3363 0
    endloop
  endfacet
  facet normal 0.738907 -0.673808 0
    outer loop
      vertex 57.6947 15.1844 3
      vertex 58.0166 15.5374 0
      vertex 58.0166 15.5374 3
    endloop
  endfacet
  facet normal 0.738907 -0.673808 0
    outer loop
      vertex 58.0166 15.5374 0
      vertex 57.6947 15.1844 3
      vertex 57.6947 15.1844 0
    endloop
  endfacet
  facet normal -0.982967 0.183783 0
    outer loop
      vertex 60.0122 14.0304 0
      vertex 60.1 14.5 3
      vertex 60.1 14.5 0
    endloop
  endfacet
  facet normal -0.982967 0.183783 0
    outer loop
      vertex 60.1 14.5 3
      vertex 60.0122 14.0304 0
      vertex 60.0122 14.0304 3
    endloop
  endfacet
  facet normal -0.273726 0.961808 0
    outer loop
      vertex 59.3795 13.3363 0
      vertex 58.9199 13.2055 3
      vertex 59.3795 13.3363 3
    endloop
  endfacet
  facet normal -0.273726 0.961808 0
    outer loop
      vertex 58.9199 13.2055 3
      vertex 59.3795 13.3363 0
      vertex 58.9199 13.2055 0
    endloop
  endfacet
  facet normal 0.0923097 -0.99573 0
    outer loop
      vertex 58.4442 15.7504 0
      vertex 58.9199 15.7945 3
      vertex 58.4442 15.7504 3
    endloop
  endfacet
  facet normal 0.0923097 -0.99573 0
    outer loop
      vertex 58.9199 15.7945 3
      vertex 58.4442 15.7504 0
      vertex 58.9199 15.7945 0
    endloop
  endfacet
  facet normal 0.0923097 0.99573 -0
    outer loop
      vertex 58.9199 13.2055 0
      vertex 58.4442 13.2496 3
      vertex 58.9199 13.2055 3
    endloop
  endfacet
  facet normal 0.0923097 0.99573 0
    outer loop
      vertex 58.4442 13.2496 3
      vertex 58.9199 13.2055 0
      vertex 58.4442 13.2496 0
    endloop
  endfacet
  facet normal 0.932464 0.361264 0
    outer loop
      vertex 57.6947 13.8156 3
      vertex 57.5221 14.2611 0
      vertex 57.5221 14.2611 3
    endloop
  endfacet
  facet normal 0.932464 0.361264 0
    outer loop
      vertex 57.5221 14.2611 0
      vertex 57.6947 13.8156 3
      vertex 57.6947 13.8156 0
    endloop
  endfacet
  facet normal 1 -0 0
    outer loop
      vertex 57.5221 14.2611 3
      vertex 57.5221 14.7389 0
      vertex 57.5221 14.7389 3
    endloop
  endfacet
  facet normal 1 0 0
    outer loop
      vertex 57.5221 14.7389 0
      vertex 57.5221 14.2611 3
      vertex 57.5221 14.2611 0
    endloop
  endfacet
  facet normal -0.273726 -0.961808 0
    outer loop
      vertex 58.9199 15.7945 0
      vertex 59.3795 15.6637 3
      vertex 58.9199 15.7945 3
    endloop
  endfacet
  facet normal -0.273726 -0.961808 -0
    outer loop
      vertex 59.3795 15.6637 3
      vertex 58.9199 15.7945 0
      vertex 59.3795 15.6637 0
    endloop
  endfacet
  facet normal 0.932464 -0.361264 0
    outer loop
      vertex 57.5221 14.7389 3
      vertex 57.6947 15.1844 0
      vertex 57.6947 15.1844 3
    endloop
  endfacet
  facet normal 0.932464 -0.361264 0
    outer loop
      vertex 57.6947 15.1844 0
      vertex 57.5221 14.7389 3
      vertex 57.5221 14.7389 0
    endloop
  endfacet
  facet normal 0.445873 -0.895096 0
    outer loop
      vertex 58.0166 15.5374 0
      vertex 58.4442 15.7504 3
      vertex 58.0166 15.5374 3
    endloop
  endfacet
  facet normal 0.445873 -0.895096 0
    outer loop
      vertex 58.4442 15.7504 3
      vertex 58.0166 15.5374 0
      vertex 58.4442 15.7504 0
    endloop
  endfacet
  facet normal 0.738907 0.673808 0
    outer loop
      vertex 58.0166 13.4626 3
      vertex 57.6947 13.8156 0
      vertex 57.6947 13.8156 3
    endloop
  endfacet
  facet normal 0.738907 0.673808 0
    outer loop
      vertex 57.6947 13.8156 0
      vertex 58.0166 13.4626 3
      vertex 58.0166 13.4626 0
    endloop
  endfacet
  facet normal 0.445873 0.895096 -0
    outer loop
      vertex 58.4442 13.2496 0
      vertex 58.0166 13.4626 3
      vertex 58.4442 13.2496 3
    endloop
  endfacet
  facet normal 0.445873 0.895096 0
    outer loop
      vertex 58.0166 13.4626 3
      vertex 58.4442 13.2496 0
      vertex 58.0166 13.4626 0
    endloop
  endfacet
endsolid OpenSCAD_Model
